<svg xmlns="http://www.w3.org/2000/svg" viewBox="0 0 64 64"><defs><style>.cls-1{fill:#0072ff;}</style></defs><title>Timer</title><g id="Layer_2" data-name="Layer 2"><path class="cls-1" d="M24,6a2,2,0,0,0,2,2H38a2,2,0,0,0,0-4H26A2,2,0,0,0,24,6Z"/><path class="cls-1" d="M55.91,38.09a23.93,23.93,0,0,0-3.32-14.43,3.08,3.08,0,0,0-4.82-.6L38.6,32.23a9.59,9.59,0,0,0-2.68,4.46,4.62,4.62,0,0,1-1.38,2.18A3.69,3.69,0,0,1,31.79,40,4,4,0,0,1,28,36.21a3.69,3.69,0,0,1,1.13-2.75,4.62,4.62,0,0,1,2.18-1.38,9.59,9.59,0,0,0,4.46-2.68l9.16-9.16a3.08,3.08,0,0,0-.6-4.82A24,24,0,1,0,55.91,38.09Z"/></g></svg>